<svg id="Layer_1" data-name="Layer 1" xmlns="http://www.w3.org/2000/svg" xmlns:xlink="http://www.w3.org/1999/xlink" viewBox="0 0 438.95 488.51"><defs><style>.cls-1{fill:url(#linear-gradient);}.cls-2{fill:url(#linear-gradient-2);}.cls-3{fill:url(#linear-gradient-3);}.cls-4{fill:url(#linear-gradient-4);}.cls-5{fill:url(#linear-gradient-5);}.cls-6{fill:url(#linear-gradient-6);}</style><linearGradient id="linear-gradient" x1="1034.06" y1="623.25" x2="1428.73" y2="851.92" gradientUnits="userSpaceOnUse"><stop offset="0" stop-color="#2b5a9e"/><stop offset="1" stop-color="#19234d"/></linearGradient><linearGradient id="linear-gradient-2" x1="1069.59" y1="561.94" x2="1464.25" y2="790.61" xlink:href="#linear-gradient"/><linearGradient id="linear-gradient-3" x1="1388.62" y1="575.27" x2="1478.81" y2="637.21" gradientUnits="userSpaceOnUse"><stop offset="0" stop-color="#d9764a"/><stop offset="1" stop-color="#de7527"/></linearGradient><linearGradient id="linear-gradient-4" x1="18.25" y1="14.81" x2="47.13" y2="14.81" gradientUnits="userSpaceOnUse"><stop offset="0" stop-color="#f79954"/><stop offset="1" stop-color="#f48021"/></linearGradient><linearGradient id="linear-gradient-5" x1="52.62" y1="56.77" x2="81.46" y2="56.77" xlink:href="#linear-gradient"/><linearGradient id="linear-gradient-6" x1="18.25" y1="89.34" x2="38.98" y2="89.34" xlink:href="#linear-gradient-3"/></defs><title>projexino 2</title><path class="cls-1" d="M1211.15,600.3c-1.45-5.24-2.69-10.9-.79-16.21,3-9.84,14.09-16.15,24.08-13.64l132,27.15L1354.92,560l-110.37-23.58c-9.17-1.86-18.27-4.46-27.69-4.48-21.11-.45-42.09,8.65-56.57,23.94l-23.66,23.67v27.88h-20.74v-7.14l-26.22,26.23c-17.45,17.8-25.45,44.51-19.9,68.92q25,103.2,50.1,206.41c3.42,14.94,13.65,27.81,26.62,35.7,6.25,3.83,13.38,5.76,20.37,7.7q49.56,14.34,99.09,28.66a23,23,0,0,0,17.36-1.36c9.44-4.26,14.4-15.82,11.9-25.73Q1253.22,773.56,1211.15,600.3Zm-91.72,45h-20.74v-20h20.74Z" transform="translate(-1068.03 -486.49)"/><path class="cls-2" d="M1504.59,710.6q-5.62-19-11.24-38l-40.68-8.75q8.74,28.56,17.44,57.15a20.48,20.48,0,0,1-24.36,25.68q-64.43-15.44-128.81-31c-7.66-1.5-15.47-5.12-23.33-2.78-11.57,2.85-19.51,15.72-16.45,27.3,6.4,26.65,12.9,53.29,19.33,79.93a22.91,22.91,0,0,0,16.44,16.58c18.4,4.54,36.81,8.94,55.21,13.41,21.22,5.52,44.6-2.87,58.66-19.46q28.58-28.59,57.17-57.17c5-5.16,10.66-9.93,14.18-16.35A56.76,56.76,0,0,0,1504.59,710.6Z" transform="translate(-1068.03 -486.49)"/><path class="cls-3" d="M1424.37,609.52a20.54,20.54,0,0,1,16,14.25q4.21,13.82,8.46,27.64l40.8,8.78q-6.6-22.31-13.23-44.62a57,57,0,0,0-42-38.58l-66.81-14.27,11.46,37.5Z" transform="translate(-1068.03 -486.49)"/><rect id="_Path_" data-name="&lt;Path&gt;" class="cls-4" x="18.25" width="28.89" height="29.63"/><rect id="_Path_2" data-name="&lt;Path&gt;" class="cls-5" x="47.87" y="46.41" width="20.74" height="20.74"/><rect id="_Path_3" data-name="&lt;Path&gt;" class="cls-6" x="18.25" y="79.34" width="20.74" height="20"/></svg>